<?xml version="1.0" encoding="UTF-8"?>
<svg id="Laag_2" xmlns="http://www.w3.org/2000/svg" viewBox="0 0 99.64 14.88">
  <defs>
    <style>
      .cls-1 {
        fill: #416095;
      }

      .cls-2 {
        fill: #e77a16;
      }
    </style>
  </defs>
  <g id="Laag_1-2" data-name="Laag_1">
    <g>
      <g>
        <path class="cls-1" d="M18.87,14.79c-.26,0-.48-.09-.66-.27s-.27-.4-.27-.66V1.82c0-.27.09-.5.27-.67.18-.17.4-.26.66-.26s.5.09.67.26.26.39.26.67v12.05c0,.26-.09.48-.26.66-.17.18-.39.27-.67.27Z"/>
        <path class="cls-1" d="M25.49,14.79c-.52,0-.98-.14-1.39-.43-.4-.29-.72-.67-.94-1.17-.23-.49-.34-1.06-.34-1.7V1.78c0-.26.08-.47.25-.64.17-.17.38-.25.64-.25s.47.08.64.25c.17.17.25.38.25.64v9.72c0,.44.08.8.25,1.09s.38.43.64.43h.45c.24,0,.43.08.58.25s.22.38.22.64-.11.47-.34.64c-.23.17-.52.25-.87.25h-.04Z"/>
        <path class="cls-1" d="M30.83,14.79c-.52,0-.99-.14-1.39-.43-.4-.29-.72-.67-.94-1.17s-.34-1.06-.34-1.7V1.78c0-.26.08-.47.25-.64.17-.17.38-.25.64-.25s.47.08.64.25c.17.17.25.38.25.64v9.72c0,.44.08.8.25,1.09.17.29.38.43.64.43h.44c.24,0,.43.08.58.25s.22.38.22.64-.11.47-.34.64-.52.25-.87.25h-.04Z"/>
        <path class="cls-1" d="M37.95,14.88c-.82,0-1.55-.17-2.2-.53-.65-.35-1.16-.86-1.53-1.54-.37-.68-.56-1.51-.56-2.49v-4.38c0-.26.09-.48.26-.65s.39-.26.65-.26.48.09.65.26.26.39.26.65v4.38c0,.67.12,1.21.37,1.65.25.43.59.75,1.01.96.43.21.91.31,1.44.31s.96-.1,1.36-.3c.4-.2.71-.47.95-.82.24-.34.36-.73.36-1.16h1.12c0,.74-.18,1.4-.54,1.99-.36.59-.85,1.06-1.48,1.41-.62.34-1.33.52-2.13.52ZM41.88,14.79c-.26,0-.48-.09-.65-.26s-.26-.39-.26-.65v-7.94c0-.27.09-.49.26-.66s.39-.25.65-.25.49.08.66.25.25.39.25.66v7.94c0,.26-.08.48-.25.65s-.39.26-.66.26Z"/>
        <path class="cls-1" d="M46.9,14.81c-.26,0-.48-.09-.65-.26s-.26-.39-.26-.65v-7.92c0-.27.09-.49.26-.66s.39-.25.65-.25.49.08.66.25.25.39.25.66v7.92c0,.26-.08.48-.25.65s-.39.26-.66.26ZM52.84,14.81c-.26,0-.48-.09-.65-.26s-.26-.39-.26-.65v-5.09c0-.75-.18-1.3-.55-1.66-.37-.36-.85-.54-1.44-.54s-1.13.21-1.53.64c-.4.43-.6.97-.6,1.64h-1.12c0-.77.15-1.45.46-2.04.31-.59.74-1.05,1.28-1.38s1.17-.5,1.87-.5,1.28.15,1.8.44c.52.3.93.73,1.22,1.31s.44,1.27.44,2.09v5.09c0,.26-.08.48-.25.65-.17.17-.39.26-.66.26ZM58.77,14.81c-.26,0-.48-.09-.65-.26s-.26-.39-.26-.65v-5.09c0-.75-.18-1.3-.55-1.66-.37-.36-.85-.54-1.44-.54s-1.12.21-1.52.64c-.4.43-.6.97-.6,1.64h-1.48c0-.77.17-1.45.5-2.04.33-.59.8-1.05,1.4-1.38.6-.33,1.28-.5,2.06-.5.68,0,1.28.15,1.8.44.52.3.93.73,1.22,1.31s.44,1.27.44,2.09v5.09c0,.26-.08.48-.25.65-.17.17-.39.26-.66.26Z"/>
        <path class="cls-1" d="M63.77,3.47c-.32,0-.6-.12-.83-.35s-.35-.51-.35-.83.12-.6.35-.83.51-.35.83-.35.6.12.83.35c.23.23.35.51.35.83s-.12.6-.35.83c-.23.23-.51.35-.83.35ZM63.77,14.79c-.26,0-.48-.09-.65-.26s-.26-.39-.26-.65v-7.92c0-.27.09-.49.26-.66s.39-.25.65-.25.49.08.66.25.25.39.25.66v7.92c0,.26-.08.48-.25.65s-.38.26-.66.26Z"/>
        <path class="cls-1" d="M68.97,14.81c-.26,0-.48-.09-.65-.26-.17-.17-.26-.39-.26-.65v-7.94c0-.27.09-.49.26-.66.17-.17.39-.25.65-.25s.49.08.66.25.25.39.25.66v7.94c0,.26-.08.48-.25.65s-.39.26-.66.26ZM76.28,14.81c-.26,0-.48-.09-.65-.26s-.26-.39-.26-.65v-4.38c0-.68-.12-1.23-.37-1.66-.25-.43-.58-.74-1.01-.95-.42-.21-.9-.31-1.45-.31-.5,0-.95.1-1.35.3-.4.2-.72.47-.96.81-.24.34-.36.73-.36,1.17h-1.12c0-.75.18-1.42.54-2,.36-.59.86-1.05,1.49-1.4.63-.34,1.33-.52,2.12-.52s1.55.17,2.2.52c.65.35,1.16.86,1.53,1.54.37.68.56,1.51.56,2.49v4.38c0,.26-.09.48-.26.65-.17.17-.39.26-.65.26Z"/>
        <path class="cls-1" d="M84.77,14.86c-.98,0-1.86-.21-2.62-.63s-1.36-1-1.8-1.74c-.43-.74-.65-1.59-.65-2.55s.21-1.83.61-2.57.98-1.32,1.7-1.74,1.55-.63,2.49-.63,1.72.2,2.38.61c.66.41,1.17.97,1.52,1.69s.53,1.55.53,2.48c0,.23-.08.41-.23.56s-.35.22-.59.22h-7.17v-1.42h7.12l-.73.5c-.01-.59-.13-1.12-.36-1.59s-.55-.84-.96-1.11c-.42-.27-.92-.41-1.51-.41-.68,0-1.25.15-1.74.45s-.85.7-1.09,1.22c-.25.52-.37,1.1-.37,1.75s.15,1.23.45,1.74c.3.51.71.91,1.23,1.21.52.3,1.12.45,1.8.45.37,0,.74-.07,1.13-.21s.7-.29.93-.47c.18-.13.37-.2.58-.21.21,0,.39.06.54.19.2.18.31.37.32.59.01.21-.08.4-.29.55-.4.32-.91.58-1.5.78-.6.2-1.17.3-1.72.3ZM84.4,3.52c-.26,0-.48-.09-.65-.26-.17-.17-.26-.39-.26-.65s.07-.45.21-.6l1.74-1.74c.18-.18.39-.27.64-.27.27,0,.49.09.66.27.17.18.25.4.25.66,0,.12-.02.23-.05.34-.04.11-.1.2-.2.28l-1.73,1.73c-.17.17-.37.25-.62.25Z"/>
        <path class="cls-1" d="M95.47,14.86c-.98,0-1.86-.21-2.62-.63s-1.36-1-1.8-1.74c-.43-.74-.65-1.59-.65-2.55s.21-1.83.61-2.57.98-1.32,1.7-1.74,1.55-.63,2.49-.63,1.72.2,2.38.61c.66.41,1.17.97,1.52,1.69s.53,1.55.53,2.48c0,.23-.08.41-.23.56s-.35.22-.59.22h-7.17v-1.42h7.12l-.73.5c-.01-.59-.13-1.12-.36-1.59s-.55-.84-.96-1.11c-.42-.27-.92-.41-1.51-.41-.68,0-1.25.15-1.74.45s-.85.7-1.09,1.22c-.25.52-.37,1.1-.37,1.75s.15,1.23.45,1.74c.3.51.71.91,1.23,1.21.52.3,1.12.45,1.8.45.37,0,.74-.07,1.13-.21s.7-.29.93-.47c.18-.13.37-.2.58-.21.21,0,.39.06.54.19.2.18.31.37.32.59.01.21-.08.4-.29.55-.4.32-.91.58-1.5.78-.6.2-1.17.3-1.72.3Z"/>
      </g>
      <g>
        <path class="cls-1" d="M11.99,2.64v10.39h-2c-1.01-4.08-4.29-7.24-8.39-8.12v-2.27h10.39M12.67,1.04H.93C.42,1.04,0,1.46,0,1.97v3.5c0,.44.31.84.75.91,3.92.61,7.05,3.65,7.79,7.52.08.43.49.74.93.74h3.19c.51,0,.93-.42.93-.93V1.97c0-.51-.42-.93-.93-.93h0Z"/>
        <path class="cls-2" d="M1.6,10.47c1.17.52,2.14,1.43,2.75,2.57H1.6v-2.57M.92,8.59c-.49,0-.92.41-.92.94v4.18c0,.51.42.93.93.93h4.43c.62,0,1.09-.6.89-1.2-.76-2.35-2.69-4.19-5.1-4.82-.08-.02-.15-.03-.23-.03h0Z"/>
      </g>
    </g>
  </g>
</svg>