<?xml version="1.0" encoding="UTF-8"?>
<svg id="Laag_2" data-name="Laag 2" xmlns="http://www.w3.org/2000/svg" viewBox="0 0 20.88 17.36">
  <defs>
    <style>
      .cls-1 {
        fill: #416095;
      }
    </style>
  </defs>
  <g id="Laag_1-2" data-name="Laag 1">
    <path class="cls-1" d="M16.91,3.97h-1.46c-.46,0-.83-.38-.83-.83h0c0-.46.38-.83.83-.83h1.46V.83c0-.46.38-.83.83-.83h0c.46,0,.83.38.83.83v1.46s1.46,0,1.46,0c.46,0,.83.38.83.83h0c0,.46-.38.83-.83.83h-1.46s0,1.46,0,1.46c0,.46-.38.83-.83.83h0c-.46,0-.83-.38-.83-.83v-1.46Z"/>
    <g>
      <path class="cls-1" d="M6.7,4.24h7.62c-.28-.29-.46-.68-.46-1.11,0-.3.09-.57.23-.81h-7.4c-.5.02-.89.42-.92.92-.02.53.39.98.92,1Z"/>
      <path class="cls-1" d="M17.53,6.22l.38-1.51c.04-.15.06-.31.06-.47,0-1.06-.86-1.92-1.92-1.92h-.71c-.4.06-.72.39-.72.81,0,.46.38.83.83.83h1.46v1.46c0,.38.27.69.62.79Z"/>
      <circle class="cls-1" cx="13.97" cy="15.36" r="2"/>
      <path class="cls-1" d="M16.16,5.43v-.71h-.24l-1.32,5.3h-7.51c-.9,0-1.68-.63-1.88-1.51l-1.25-5.64c-.2-.88-.98-1.51-1.88-1.51H.93C.42,1.38.02,1.78,0,2.29c-.02.53.4.98.93.99h1.15l1.25,5.64c.39,1.76,1.95,3.01,3.75,3.01h7.51c.88,0,1.65-.6,1.87-1.46l.88-3.52c-.68-.18-1.19-.79-1.19-1.53Z"/>
      <circle class="cls-1" cx="6.97" cy="15.36" r="2"/>
    </g>
  </g>
</svg>