<?xml version="1.0" encoding="UTF-8"?>
<svg id="Laag_2" data-name="Laag 2" xmlns="http://www.w3.org/2000/svg" viewBox="0 0 175 167.36">
  <defs>
    <style>
      .cls-1 {
        fill: #ed8a19;
      }
    </style>
  </defs>
  <g id="Laag_1-2" data-name="Laag 1">
    <path class="cls-1" d="M87.5,9c.26,0,.31.1.38.24l19.74,39.99c2.68,5.44,7.87,9.21,13.87,10.08l44.14,6.41c.15.02.26.04.34.29.08.25,0,.33-.11.43l-31.94,31.13c-4.34,4.24-6.32,10.33-5.3,16.31l7.54,43.96c.03.2,0,.24-.06.31-.11.13-.27.21-.36.21-.06,0-.15-.04-.2-.07l-39.48-20.75c-2.63-1.38-5.6-2.11-8.57-2.11s-5.94.73-8.57,2.12l-39.48,20.75c-.08.04-.16.07-.2.07-.09,0-.25-.08-.36-.2-.06-.07-.09-.11-.06-.31l7.54-43.95c1.03-5.98-.95-12.07-5.3-16.31l-31.94-31.13c-.11-.11-.19-.19-.11-.44.08-.25.18-.26.34-.29l44.13-6.41c6-.87,11.19-4.64,13.88-10.08l19.74-40c.07-.14.11-.23.38-.23M87.5,0c-3.36,0-6.72,1.75-8.45,5.25l-19.74,39.99c-1.37,2.78-4.03,4.71-7.1,5.15l-44.14,6.41c-7.73,1.12-10.82,10.62-5.22,16.07l31.94,31.13c2.22,2.16,3.23,5.29,2.71,8.34l-7.54,43.96c-1.05,6.09,3.8,11.04,9.29,11.04,1.45,0,2.94-.34,4.39-1.1l39.48-20.75c1.37-.72,2.88-1.08,4.39-1.08s3.01.36,4.39,1.08l39.48,20.75c1.44.76,2.94,1.1,4.39,1.1,5.49,0,10.33-4.95,9.29-11.04l-7.54-43.96c-.53-3.06.49-6.18,2.71-8.34l31.94-31.13c5.59-5.45,2.51-14.95-5.22-16.07l-44.14-6.41c-3.07-.45-5.72-2.37-7.1-5.15L95.95,5.25c-1.73-3.5-5.09-5.25-8.45-5.25h0Z"/>
  </g>
</svg>