<?xml version="1.0" encoding="UTF-8"?>
<svg id="Laag_2" data-name="Laag 2" xmlns="http://www.w3.org/2000/svg" viewBox="0 0 101.55 101.55">
  <g id="Laag_1-2" data-name="Laag 1">
    <g>
      <g>
        <g>
          <g>
            <g>
              <path d="M46.42,35.71l-7.93,18.64h-7.46l-7.93-18.64v28.88h-10.3V21.02h12.61l9.66,21.51,9.63-21.51h12.61"/>
              <path d="M64.65,65.5c-5.85,0-10.35-1.41-13.5-4.24s-4.73-6.96-4.73-12.41v-27.83h10.94v27.18c0,3.02.57,5.28,1.71,6.76s3,2.22,5.57,2.22,4.36-.71,5.54-2.14,1.77-3.71,1.77-6.85v-6.32h10.94v6.93c0,5.36-1.54,9.49-4.61,12.36s-7.62,4.32-13.65,4.32Z"/>
            </g>
            <path d="M76.56,21.27l-10.3,19.1c-.39.67.1,1.52.88,1.52h20.59c.78,0,1.27-.84.88-1.52l-10.3-19.1c-.39-.67-1.36-.67-1.75,0Z"/>
          </g>
          <g>
            <path d="M25.22,80.55h-2.76v-7.31l-2.01,4.72h-1.89l-2.01-4.72v7.31h-2.61v-11.03h3.19l2.45,5.45,2.44-5.45h3.19v11.03Z"/>
            <path d="M37.55,75.04c0,1.78-.48,3.19-1.43,4.21-.95,1.02-2.26,1.53-3.92,1.53s-2.97-.52-3.92-1.55c-.95-1.03-1.42-2.43-1.42-4.19s.47-3.18,1.42-4.21,2.26-1.55,3.92-1.55,2.97.51,3.92,1.54c.95,1.03,1.43,2.43,1.43,4.21ZM34.69,75.03c0-.66-.07-1.22-.2-1.68-.14-.46-.32-.84-.54-1.14-.24-.3-.51-.52-.8-.65-.3-.13-.61-.2-.93-.2-.34,0-.65.06-.93.18-.28.12-.54.34-.8.65-.23.29-.41.67-.55,1.14s-.21,1.04-.21,1.7.07,1.24.2,1.69c.13.45.32.82.55,1.12.24.31.51.53.81.66.3.13.61.2.93.2s.64-.07.95-.21.57-.36.79-.66c.24-.32.42-.7.55-1.12.13-.43.19-.99.19-1.68Z"/>
            <path d="M49.04,75.05c0,1.03-.22,1.95-.67,2.76-.45.81-1.02,1.44-1.7,1.87-.57.37-1.2.61-1.87.72-.67.11-1.39.16-2.15.16h-3.45v-11.03h3.42c.78,0,1.5.05,2.18.15.68.1,1.31.34,1.9.72.73.46,1.3,1.09,1.72,1.88.42.79.63,1.72.63,2.78ZM46.2,75.03c0-.73-.12-1.35-.37-1.86-.25-.52-.63-.92-1.15-1.21-.38-.21-.77-.32-1.18-.34-.41-.02-.91-.03-1.48-.03h-.05v6.91h.05c.62,0,1.15-.01,1.57-.03.43-.02.83-.15,1.22-.4.45-.29.8-.68,1.04-1.19.24-.5.36-1.12.36-1.85Z"/>
            <path d="M50.68,80.55v-11.03h7.46v2.1h-4.71v1.93h4.34v2.1h-4.34v2.79h4.71v2.1h-7.46Z"/>
            <path d="M67.38,80.55h-7.37v-11.03h2.77v8.93h4.59v2.1Z"/>
            <path d="M73.16,80.78c-1.48,0-2.62-.36-3.42-1.07-.8-.72-1.2-1.76-1.2-3.14v-7.05h2.77v6.88c0,.77.14,1.34.43,1.71.29.38.76.56,1.41.56s1.11-.18,1.4-.54c.3-.36.45-.94.45-1.73v-6.88h2.77v7.04c0,1.36-.39,2.4-1.17,3.13-.78.73-1.93,1.09-3.46,1.09Z"/>
            <path d="M88.41,73c0,.51-.08,1-.24,1.47-.16.46-.4.85-.7,1.16-.19.19-.39.37-.62.53-.22.16-.47.3-.74.42-.27.11-.57.2-.89.27-.32.06-.68.1-1.07.1h-1.45v3.61h-2.77v-11.03h4.28c.64,0,1.19.06,1.65.17.46.12.88.3,1.26.55.41.28.74.65.96,1.11.23.46.34,1.01.34,1.65ZM85.56,73.07c0-.31-.07-.58-.22-.8-.15-.22-.33-.38-.53-.46-.26-.11-.51-.18-.75-.2-.24-.02-.56-.03-.97-.03h-.39v3.31h.19c.26,0,.51,0,.74,0,.23,0,.43-.02.61-.05.15-.02.3-.07.47-.14.17-.07.29-.15.38-.24.19-.18.31-.37.38-.57.07-.2.1-.46.1-.8Z"/>
          </g>
        </g>
        <path d="M101.55,101.55H0V0h101.55v101.55ZM2.9,98.65h95.74V2.9H2.9v95.74Z"/>
      </g>
      <g>
        <g>
          <g>
            <g>
              <path d="M46.42,35.71l-7.93,18.64h-7.46l-7.93-18.64v28.88h-10.3V21.02h12.61l9.66,21.51,9.63-21.51h12.61"/>
              <path d="M64.65,65.5c-5.85,0-10.35-1.41-13.5-4.24s-4.73-6.96-4.73-12.41v-27.83h10.94v27.18c0,3.02.57,5.28,1.71,6.76s3,2.22,5.57,2.22,4.36-.71,5.54-2.14,1.77-3.71,1.77-6.85v-6.32h10.94v6.93c0,5.36-1.54,9.49-4.61,12.36s-7.62,4.32-13.65,4.32Z"/>
            </g>
            <path d="M76.56,21.27l-10.3,19.1c-.39.67.1,1.52.88,1.52h20.59c.78,0,1.27-.84.88-1.52l-10.3-19.1c-.39-.67-1.36-.67-1.75,0Z"/>
          </g>
          <g>
            <path d="M25.22,80.55h-2.76v-7.31l-2.01,4.72h-1.89l-2.01-4.72v7.31h-2.61v-11.03h3.19l2.45,5.45,2.44-5.45h3.19v11.03Z"/>
            <path d="M37.55,75.04c0,1.78-.48,3.19-1.43,4.21-.95,1.02-2.26,1.53-3.92,1.53s-2.97-.52-3.92-1.55c-.95-1.03-1.42-2.43-1.42-4.19s.47-3.18,1.42-4.21,2.26-1.55,3.92-1.55,2.97.51,3.92,1.54c.95,1.03,1.43,2.43,1.43,4.21ZM34.69,75.03c0-.66-.07-1.22-.2-1.68-.14-.46-.32-.84-.54-1.14-.24-.3-.51-.52-.8-.65-.3-.13-.61-.2-.93-.2-.34,0-.65.06-.93.18-.28.12-.54.34-.8.65-.23.29-.41.67-.55,1.14s-.21,1.04-.21,1.7.07,1.24.2,1.69c.13.45.32.82.55,1.12.24.31.51.53.81.66.3.13.61.2.93.2s.64-.07.95-.21.57-.36.79-.66c.24-.32.42-.7.55-1.12.13-.43.19-.99.19-1.68Z"/>
            <path d="M49.04,75.05c0,1.03-.22,1.95-.67,2.76-.45.81-1.02,1.44-1.7,1.87-.57.37-1.2.61-1.87.72-.67.11-1.39.16-2.15.16h-3.45v-11.03h3.42c.78,0,1.5.05,2.18.15.68.1,1.31.34,1.9.72.73.46,1.3,1.09,1.72,1.88.42.79.63,1.72.63,2.78ZM46.2,75.03c0-.73-.12-1.35-.37-1.86-.25-.52-.63-.92-1.15-1.21-.38-.21-.77-.32-1.18-.34-.41-.02-.91-.03-1.48-.03h-.05v6.91h.05c.62,0,1.15-.01,1.57-.03.43-.02.83-.15,1.22-.4.45-.29.8-.68,1.04-1.19.24-.5.36-1.12.36-1.85Z"/>
            <path d="M50.68,80.55v-11.03h7.46v2.1h-4.71v1.93h4.34v2.1h-4.34v2.79h4.71v2.1h-7.46Z"/>
            <path d="M67.38,80.55h-7.37v-11.03h2.77v8.93h4.59v2.1Z"/>
            <path d="M73.16,80.78c-1.48,0-2.62-.36-3.42-1.07-.8-.72-1.2-1.76-1.2-3.14v-7.05h2.77v6.88c0,.77.14,1.34.43,1.71.29.38.76.56,1.41.56s1.11-.18,1.4-.54c.3-.36.45-.94.45-1.73v-6.88h2.77v7.04c0,1.36-.39,2.4-1.17,3.13-.78.73-1.93,1.09-3.46,1.09Z"/>
            <path d="M88.41,73c0,.51-.08,1-.24,1.47-.16.46-.4.85-.7,1.16-.19.19-.39.37-.62.53-.22.16-.47.3-.74.42-.27.11-.57.2-.89.27-.32.06-.68.1-1.07.1h-1.45v3.61h-2.77v-11.03h4.28c.64,0,1.19.06,1.65.17.46.12.88.3,1.26.55.41.28.74.65.96,1.11.23.46.34,1.01.34,1.65ZM85.56,73.07c0-.31-.07-.58-.22-.8-.15-.22-.33-.38-.53-.46-.26-.11-.51-.18-.75-.2-.24-.02-.56-.03-.97-.03h-.39v3.31h.19c.26,0,.51,0,.74,0,.23,0,.43-.02.61-.05.15-.02.3-.07.47-.14.17-.07.29-.15.38-.24.19-.18.31-.37.38-.57.07-.2.1-.46.1-.8Z"/>
          </g>
        </g>
        <path d="M101.55,101.55H0V0h101.55v101.55ZM2.9,98.65h95.74V2.9H2.9v95.74Z"/>
      </g>
    </g>
  </g>
</svg>